<svg width="28" height="20" viewBox="0 0 28 20" fill="none" xmlns="http://www.w3.org/2000/svg">
<path d="M12.644 15.08C15.51 14.418 17.183 13.839 15.89 11.398C11.958 3.971 14.848 0 19.001 0C23.236 0 26.055 4.124 22.111 11.398C20.779 13.853 22.548 14.432 25.353 15.08C27.836 15.654 28 16.867 28 18.969V20H10C10 17.255 9.78 15.742 12.644 15.08ZM0 20H7.809C7.774 11.823 11.245 14.687 11.245 8.873C11.245 6.362 9.606 5 7.497 5C4.382 5 2.215 7.979 5.164 13.549C6.133 15.379 4.133 15.814 1.983 16.31C0.121 16.74 0 17.65 0 19.227V20V20Z" fill="black"/>
</svg>
