<svg width="24" height="14" viewBox="0 0 24 14" fill="none" xmlns="http://www.w3.org/2000/svg">
<path fill-rule="evenodd" clip-rule="evenodd" d="M24 14V7C24 6.735 23.895 6.48 23.707 6.293C23.52 6.105 23.265 6 23 6H1C0.735 6 0.48 6.105 0.293 6.293C0.105 6.48 0 6.735 0 7V14H1V12H23V14H24ZM5 5V4C5 3.448 5.448 3 6 3H10C10.552 3 11 3.448 11 4V5H13V4C13 3.448 13.448 3 14 3H18C18.552 3 19 3.448 19 4V5H22V1C22 0.735 21.895 0.48 21.707 0.293C21.52 0.105 21.265 0 21 0H3C2.735 0 2.48 0.105 2.293 0.293C2.105 0.48 2 0.735 2 1V5H5Z" fill="black"/>
</svg>
