<svg width="24" height="13" viewBox="0 0 24 13" fill="none" xmlns="http://www.w3.org/2000/svg">
<path d="M21.739 4.921C20.392 4.531 19.854 4.383 18.187 4C18.187 4 15.808 1.641 15.355 1.184C14.787 0.612 14.312 0 12.406 0H4.512C4.001 0 3.776 0.547 4.442 1C3.7 1.602 2.823 2.38 2.184 3.027C0.749 4.482 0 5.412 0 7.282C0 9.042 1.042 11 3.174 11H3.184C3.597 12.162 4.696 13 6 13C7.304 13 8.403 12.162 8.816 11H15.183C15.596 12.162 16.695 13 17.999 13C19.303 13 20.402 12.162 20.815 11H21.5C23.494 11 24 9.224 24 7.835C24 5.794 22.877 5.251 21.739 4.921V4.921ZM6 11.2C5.338 11.2 4.8 10.662 4.8 10C4.8 9.338 5.338 8.8 6 8.8C6.662 8.8 7.2 9.338 7.2 10C7.2 10.662 6.662 11.2 6 11.2ZM9.576 5C8.505 5 6.076 4.894 4.357 4.25C4.935 3.5 5.355 3.028 5.627 2.714C5.945 2.346 6.5 2 7.188 2H9.576V5ZM10.576 2H12.411C13.293 2 13.839 2.493 14.433 3.105C14.885 3.571 16.165 5 16.165 5H10.577V2H10.576ZM18 11.2C17.338 11.2 16.8 10.662 16.8 10C16.8 9.338 17.338 8.8 18 8.8C18.662 8.8 19.2 9.338 19.2 10C19.2 10.662 18.662 11.2 18 11.2Z" fill="black"/>
</svg>
