<svg width="61" height="51" viewBox="0 0 61 51" fill="none" xmlns="http://www.w3.org/2000/svg">
<path d="M56.7918 28.8092C54.5842 36.3979 48.7893 42.4688 41.3386 45.0213C52.1696 36.1909 53.6874 20.2548 44.857 9.42378C36.0266 -1.40725 20.0215 -2.92498 9.25945 5.9744C-1.50259 14.8738 -3.15829 30.7409 5.74109 41.5719C10.5702 47.4359 17.7449 50.8162 25.3335 50.8162H33.4051C46.2367 50.7473 57.4127 42.3308 61 30.051L56.7918 28.8092ZM25.3335 7.69909C28.7829 7.69909 31.5424 10.4586 31.5424 13.908C31.5424 17.3573 28.7829 20.1168 25.3335 20.1168C21.8842 20.1168 19.1247 17.3573 19.1247 13.908C19.1247 10.5276 21.8842 7.69909 25.3335 7.69909ZM13.8816 31.6377C10.4322 31.6377 7.67274 28.9472 7.60375 25.4978C7.60375 22.0485 10.2943 19.289 13.7436 19.22C17.193 19.22 19.9525 21.9105 20.0215 25.3599V25.4289C20.0215 28.8092 17.262 31.5687 13.8816 31.6377ZM25.3335 43.0896C21.8842 43.0896 19.1247 40.3301 19.1247 36.8808C19.1247 33.4314 21.8842 30.6719 25.3335 30.6719C28.7829 30.6719 31.5424 33.4314 31.5424 36.8808C31.5424 40.3301 28.7829 43.0896 25.3335 43.0896ZM36.8544 31.6377H36.7854C33.4051 31.5687 30.6456 28.8092 30.6456 25.4289C30.6456 21.9795 33.4051 19.22 36.8544 19.22C40.3038 19.22 43.0633 21.9795 43.0633 25.4289C43.0633 28.8782 40.3038 31.6377 36.8544 31.6377Z" fill="black"/>
</svg>
