<svg width="63" height="63" viewBox="0 0 63 63" fill="none" xmlns="http://www.w3.org/2000/svg">
<path fill-rule="evenodd" clip-rule="evenodd" d="M19.7046 40.6118H16.7881L1.13496 56.3387C-0.37867 57.8524 -0.37867 60.3258 1.13496 61.8395C2.64858 63.3531 5.12207 63.3531 6.63569 61.8395L22.3257 46.1494V43.2329L23.3225 42.1992C28.491 46.6294 35.5423 48.9183 43.0365 47.6631C53.2997 45.9279 61.4954 37.363 62.7506 27.0261C64.6703 11.4099 51.5276 -1.73282 35.9114 0.186898C25.5745 1.4421 17.0096 9.63783 15.2744 19.901C14.0192 27.3952 16.3081 34.4465 20.7383 39.615L19.7046 40.6118ZM55.5524 23.9989C55.5524 33.1914 48.1319 40.6119 38.9394 40.6119C29.7469 40.6119 22.3264 33.1914 22.3264 23.9989C22.3264 14.8064 29.7469 7.38592 38.9394 7.38592C48.1319 7.38592 55.5524 14.8064 55.5524 23.9989Z" fill="white"/>
</svg>
