<svg width="53" height="53" viewBox="0 0 53 53" fill="none" xmlns="http://www.w3.org/2000/svg">
<path fill-rule="evenodd" clip-rule="evenodd" d="M26.1354 0C11.7087 0 0 11.7087 0 26.1354C0 40.5621 11.7087 52.2708 26.1354 52.2708C40.5621 52.2708 52.2708 40.5621 52.2708 26.1354C52.2708 11.7087 40.5621 0 26.1354 0ZM20.908 36.5896C19.4705 36.5896 18.2944 35.4135 18.2944 33.976V18.2948C18.2944 16.8573 19.4705 15.6812 20.908 15.6812C22.3454 15.6812 23.5215 16.8573 23.5215 18.2948V33.976C23.5215 35.4135 22.3454 36.5896 20.908 36.5896ZM28.7493 33.976C28.7493 35.4135 29.9254 36.5896 31.3628 36.5896C32.8003 36.5896 33.9764 35.4135 33.9764 33.976V18.2948C33.9764 16.8573 32.8003 15.6812 31.3628 15.6812C29.9254 15.6812 28.7493 16.8573 28.7493 18.2948V33.976Z" fill="white"/>
</svg>
