<svg width="41" height="41" viewBox="0 0 41 41" fill="none" xmlns="http://www.w3.org/2000/svg">
<path d="M38.3688 17.8117H8.97882L21.8189 4.62682C22.845 3.57311 22.845 1.84395 21.8189 0.790242C21.3273 0.28432 20.6599 0 19.9639 0C19.2679 0 18.6005 0.28432 18.1089 0.790242L0.769613 18.5952C-0.256538 19.6489 -0.256538 21.3511 0.769613 22.4048L18.1089 40.2097C19.1351 41.2634 20.7927 41.2634 21.8189 40.2097C22.845 39.156 22.845 37.4539 21.8189 36.4002L8.97882 23.2153H38.3688C39.816 23.2153 41 21.9995 41 20.5135C41 19.0275 39.816 17.8117 38.3688 17.8117Z" fill="black"/>
</svg>
