<svg width="78" height="78" viewBox="0 0 78 78" fill="none" xmlns="http://www.w3.org/2000/svg">
<path d="M5.00561 33.8856H60.9183L36.4909 8.80224C34.5387 6.79763 34.5387 3.508 36.4909 1.50339C37.4261 0.540901 38.6958 0 40.0199 0C41.344 0 42.6136 0.540901 43.5489 1.50339L76.5359 35.3762C78.488 37.3808 78.488 40.6191 76.5359 42.6237L43.5489 76.4965C41.5967 78.5011 38.4431 78.5011 36.4909 76.4965C34.5387 74.4919 34.5387 71.2537 36.4909 69.2491L60.9183 44.1657H5.00561C2.25253 44.1657 -1.68104e-06 41.8527 -1.68104e-06 39.0257C-1.68104e-06 36.1986 2.25253 33.8856 5.00561 33.8856Z" fill="white"/>
</svg>
