<svg width="64" height="21" viewBox="0 0 64 21" fill="none" xmlns="http://www.w3.org/2000/svg">
<path d="M62.3125 11.7246H5.47633L11.9037 18.152C12.4174 18.6657 12.4174 19.5086 11.9037 20.0223C11.3901 20.5359 10.5603 20.5359 10.0466 20.0223L1.367 11.3426C0.853339 10.829 0.853339 9.9992 1.367 9.48554L10.0335 0.792739C10.2795 0.54611 10.6136 0.407509 10.962 0.407509C11.3104 0.407509 11.6445 0.54611 11.8905 0.792739C12.4042 1.3064 12.4042 2.13617 11.8905 2.64984L5.47633 9.09041H62.3125C63.0369 9.09041 63.5 9.7756 63.5 10.5C63.5 11.2244 63.0369 11.7246 62.3125 11.7246Z" fill="white" fill-opacity="0.75"/>
</svg>
