<svg width="74" height="74" viewBox="0 0 74 74" fill="none" xmlns="http://www.w3.org/2000/svg">
<path fill-rule="evenodd" clip-rule="evenodd" d="M0 36.9177C0 16.5022 16.5022 0 36.9177 0C57.3332 0 73.8354 16.5022 73.8354 36.9177C73.8354 57.3332 57.3332 73.8354 36.9177 73.8354C16.5022 73.8354 0 57.3332 0 36.9177ZM47.5871 52.7924C49.0269 54.2322 51.3527 54.2322 52.7925 52.7924C54.1954 51.3526 54.1954 48.9898 52.7925 47.587L42.1233 36.9178L52.7925 26.2485C54.2323 24.8087 54.2323 22.4829 52.7925 21.0431C51.3527 19.6034 49.0269 19.6034 47.5871 21.0431L36.9179 31.7124L26.2487 21.0431C24.8089 19.6034 22.4831 19.6034 21.0433 21.0431C20.352 21.7329 19.9635 22.6693 19.9635 23.6458C19.9635 24.6224 20.352 25.5588 21.0433 26.2485L31.7125 36.9178L21.0433 47.587C20.352 48.2767 19.9635 49.2131 19.9635 50.1897C19.9635 51.1662 20.352 52.1026 21.0433 52.7924C22.4831 54.2322 24.8089 54.2322 26.2487 52.7924L36.9179 42.1231L47.5871 52.7924Z" fill="white"/>
</svg>
