<svg width="63" height="63" viewBox="0 0 63 63" fill="none" xmlns="http://www.w3.org/2000/svg">
<path fill-rule="evenodd" clip-rule="evenodd" d="M0.0351562 31.4828C0.0351562 14.1673 14.2024 0 31.518 0C48.8336 0 63.0009 14.1673 63.0009 31.4828C63.0009 48.7984 48.8336 62.9657 31.518 62.9657C14.2024 62.9657 0.0351562 48.7984 0.0351562 31.4828ZM29.8506 35.5442L42.6956 43.4464C43.829 44.139 45.3087 43.7927 46.0013 42.6908C46.6939 41.5574 46.3161 40.0777 45.1827 39.3851L33.0933 32.1125V18.1027C33.0933 16.8119 32.0229 15.7415 30.7321 15.7415C29.4413 15.7415 28.3709 16.8119 28.3394 18.1027V32.8681C28.3394 33.97 28.9061 34.9775 29.8506 35.5442Z" fill="white"/>
</svg>
