<svg width="60" height="77" viewBox="0 0 60 77" fill="none" xmlns="http://www.w3.org/2000/svg">
<path fill-rule="evenodd" clip-rule="evenodd" d="M29.6541 2.15599V8.76426C45.9717 8.76426 59.1882 21.9808 59.1882 38.2984C59.1882 42.1379 58.4499 45.8296 57.0839 49.1891C56.0871 51.6626 52.9122 52.3272 51.0294 50.4444C50.0326 49.4476 49.6265 47.9339 50.1803 46.6049C51.2509 44.0576 51.8047 41.2149 51.8047 38.2984C51.8047 26.0787 41.8738 16.1478 29.6541 16.1478V22.7561C29.6541 24.4174 27.6605 25.2296 26.4791 24.0851L16.1791 13.7851C15.4407 13.0467 15.4407 11.9023 16.1791 11.1639L26.5161 0.863874C27.6605 -0.317493 29.6541 0.494697 29.6541 2.15599ZM7.50268 38.2983C7.50268 50.5181 17.4335 60.4489 29.6533 60.4489V53.8407C29.6533 52.1794 31.6469 51.3672 32.7913 52.5116L43.0914 62.8117C43.8297 63.55 43.8297 64.6945 43.0914 65.4328L32.7913 75.7329C31.6469 76.9142 29.6533 76.102 29.6533 74.4407V67.8325C13.3357 67.8325 0.119141 54.6159 0.119141 38.2983C0.119141 34.4589 0.857495 30.7671 2.22345 27.4076C3.22023 24.9341 6.39515 24.2696 8.27795 26.1524C9.27473 27.1492 9.68083 28.6628 9.12706 29.9918C8.05645 32.5392 7.50268 35.3818 7.50268 38.2983Z" fill="white"/>
</svg>
