<svg
      width="62"
      height="63"
      viewBox="0 0 62 63"
      fill="none"
      xmlns="http://www.w3.org/2000/svg"
    >
      <path
        fill-rule="evenodd"
        clip-rule="evenodd"
        d="M54.2429 31.4828C54.2429 32.5533 54.1484 33.5607 54.0225 34.5682L60.6653 39.7628C61.2635 40.2351 61.4209 41.0851 61.0431 41.7777L54.7466 52.6708C54.3688 53.3634 53.5502 53.6468 52.8261 53.3634L44.9869 50.2151C43.3498 51.443 41.5867 52.5134 39.6663 53.3005L38.4699 61.6434C38.3755 62.399 37.7144 62.9657 36.9273 62.9657H24.3341C23.5471 62.9657 22.8859 62.399 22.7915 61.6434L21.5951 53.3005C19.6747 52.5134 17.9116 51.4745 16.2745 50.2151L8.4353 53.3634C7.74268 53.6153 6.89264 53.3634 6.51485 52.6708L0.218276 41.7777C-0.159519 41.0851 -0.00210429 40.2351 0.59607 39.7628L7.23895 34.5682C7.11302 33.5607 7.01857 32.5218 7.01857 31.4828C7.01857 30.4439 7.11302 29.405 7.23895 28.3975L0.59607 23.2029C-0.00210429 22.7306 -0.191001 21.8806 0.218276 21.188L6.51485 10.2949C6.89264 9.60227 7.71119 9.31892 8.4353 9.60227L16.2745 12.7506C17.9116 11.5227 19.6747 10.4523 21.5951 9.66523L22.7915 1.32228C22.8859 0.566691 23.5471 0 24.3341 0H36.9273C37.7144 0 38.3755 0.566691 38.4699 1.32228L39.6663 9.66523C41.5867 10.4523 43.3498 11.4912 44.9869 12.7506L52.8261 9.60227C53.5187 9.35041 54.3688 9.60227 54.7466 10.2949L61.0431 21.188C61.4209 21.8806 61.2635 22.7306 60.6653 23.2029L54.0225 28.3975C54.1484 29.405 54.2429 30.4124 54.2429 31.4828ZM19.6118 31.4829C19.6118 37.5591 24.5546 42.5019 30.6308 42.5019C36.707 42.5019 41.6498 37.5591 41.6498 31.4829C41.6498 25.4067 36.707 20.4639 30.6308 20.4639C24.5546 20.4639 19.6118 25.4067 19.6118 31.4829Z"
        fill="white"
      />
    </svg>