<svg width="24" height="24" viewBox="0 0 24 24" fill="none" xmlns="http://www.w3.org/2000/svg">
<path d="M22.088 13.126L24 12L22.088 10.874C21.067 10.272 20.716 8.964 21.3 7.932L22.393 6L20.173 5.98C18.988 5.97 18.03 5.012 18.02 3.827L18 1.608L16.068 2.701C15.037 3.284 13.728 2.934 13.127 1.913L12 0L10.873 1.913C10.271 2.934 8.963 3.285 7.932 2.701L6 1.608L5.98 3.827C5.97 5.012 5.012 5.97 3.827 5.98L1.607 6L2.7 7.932C3.284 8.964 2.933 10.272 1.912 10.874L0 12L1.912 13.126C2.933 13.728 3.284 15.036 2.7 16.068L1.607 18L3.827 18.02C5.012 18.03 5.97 18.988 5.98 20.173L6 22.392L7.932 21.299C8.963 20.716 10.272 21.066 10.873 22.087L12 24L13.127 22.087C13.729 21.066 15.037 20.715 16.068 21.299L18 22.392L18.02 20.173C18.031 18.988 18.989 18.03 20.173 18.02L22.393 18L21.3 16.068C20.716 15.037 21.066 13.728 22.088 13.126ZM11.971 20C7.56 20 3.971 16.411 3.971 12C3.971 7.589 7.559 4 11.971 4C16.383 4 19.971 7.589 19.971 12C19.971 16.411 16.382 20 11.971 20ZM18 12C18 15.313 15.313 18 12 18C8.687 18 6 15.313 6 12C6 8.687 8.687 6 12 6C15.313 6 18 8.687 18 12Z" fill="black"/>
</svg>
