<svg width="84" height="79" viewBox="0 0 84 79" fill="none" xmlns="http://www.w3.org/2000/svg">
<path fill-rule="evenodd" clip-rule="evenodd" d="M51.3333 5.18477V4.25144C51.3333 1.31144 54.2733 -0.788562 56.98 0.284772C72.8 6.30477 84 21.5648 84 39.4848C84 57.4048 72.8 72.6648 56.98 78.6848C54.2733 79.7114 51.3333 77.6581 51.3333 74.7181V73.7848C51.3333 72.0114 52.4533 70.4714 54.1333 69.8181C66.1733 65.0114 74.6667 53.2048 74.6667 39.4848C74.6667 25.7648 66.1733 13.9581 54.1333 9.15144C52.5 8.49811 51.3333 6.9581 51.3333 5.18477ZM0 30.1514V48.8181C0 51.3847 2.1 53.4847 4.66667 53.4847H18.6667L34.02 68.8381C36.96 71.7781 42 69.6781 42 65.5247V13.3981C42 9.24475 36.96 7.14475 34.02 10.0847L18.6667 25.4847H4.66667C2.1 25.4847 0 27.5847 0 30.1514ZM63 39.4848C63 31.2248 58.24 24.1315 51.3333 20.6781V58.2448C58.24 54.8381 63 47.7448 63 39.4848Z" fill="white"/>
</svg>
