<svg width="81" height="62" viewBox="0 0 81 62" fill="none" xmlns="http://www.w3.org/2000/svg">
<path d="M0 21.4387V40.1054C0 42.6721 2.1 44.7721 4.66667 44.7721H18.6667L34.02 60.1254C36.96 63.0654 42 60.9654 42 56.8121V4.68539C42 0.532054 36.96 -1.56795 34.02 1.37205L18.6667 16.7721H4.66667C2.1 16.7721 0 18.8721 0 21.4387Z" fill="white"/>
<path fill-rule="evenodd" clip-rule="evenodd" d="M77.171 16.653C76.3025 15.7823 74.8886 15.7823 74.0201 16.653L66.1532 24.4861L58.2803 16.653C57.4118 15.7823 56.0039 15.7823 55.1294 16.653L51.9815 19.7874C51.113 20.6521 51.113 22.06 51.9815 22.9248L59.8483 30.7579L51.9815 38.5969C51.1189 39.4617 51.1189 40.8636 51.9815 41.7343L55.1294 44.8687C56.0039 45.7335 57.4118 45.7335 58.2803 44.8687L66.1532 37.0356L74.0201 44.8687C74.8886 45.7335 76.3025 45.7335 77.171 44.8687L80.3189 41.7343C81.1934 40.8636 81.1934 39.4617 80.3189 38.5969L72.452 30.7579L80.3189 22.9248C81.1934 22.06 81.1934 20.6521 80.3189 19.7874L77.171 16.653Z" fill="white"/>
</svg>
